<svg width="128" height="98" viewBox="0 0 128 98" fill="none" xmlns="http://www.w3.org/2000/svg">
<g id="Group 1">
<path id="Rectangle 1" d="M0 66C0 48.3269 14.3269 34 32 34V34C49.6731 34 64 48.3269 64 66V98H32C14.3269 98 0 83.6731 0 66V66Z" fill="#7000FF"/>
<path id="Rectangle 2" d="M68 15C68 6.71573 74.7157 0 83 0H113C121.284 0 128 6.71573 128 15V15C128 23.2843 121.284 30 113 30H68V15Z" fill="#7000FF"/>
<path id="Rectangle 3" d="M68 49C68 40.7157 74.7157 34 83 34H113C121.284 34 128 40.7157 128 49V49C128 57.2843 121.284 64 113 64H68V49Z" fill="#7000FF"/>
<path id="Rectangle 4" d="M68 83C68 74.7157 74.7157 68 83 68V68C91.2843 68 98 74.7157 98 83V83C98 91.2843 91.2843 98 83 98H68V83Z" fill="#7000FF"/>
</g>
</svg>
