<svg xmlns="http://www.w3.org/2000/svg" width="461" height="272" viewBox="0 0 461 272" fill="none">
  <path d="M290.569 50.5244C290.569 22.6206 313.238 0 341.203 0H422.606C443.777 0 460.939 17.1251 460.939 38.25C460.939 59.3749 443.777 76.5 422.606 76.5H290.569V50.5244Z" fill="white"/>
  <path d="M290.569 144.024C290.569 116.121 313.238 93.4999 341.203 93.4999H422.606C443.777 93.4999 460.939 110.625 460.939 131.75C460.939 152.875 443.777 170 422.606 170H290.569V144.024Z" fill="white"/>
  <path d="M290.569 229.5C290.569 206.028 309.638 187 333.161 187C356.685 187 375.754 206.028 375.754 229.5C375.754 252.972 356.685 272 333.161 272H290.569V229.5Z" fill="white"/>
  <path fill-rule="evenodd" clip-rule="evenodd" d="M136.727 0C61.6158 0 0.726562 60.8893 0.726562 136C0.726562 211.111 61.6158 272 136.727 272H272.727V136C272.727 60.8893 211.837 0 136.727 0ZM72.9766 136C72.9766 171.208 101.518 199.75 136.727 199.75H200.477V136C200.477 100.792 171.935 72.25 136.727 72.25C101.518 72.25 72.9766 100.792 72.9766 136Z" fill="white"/>
</svg>